<?xml version="1.0" encoding="utf-8" ?>
<svg xmlns="http://www.w3.org/2000/svg" xmlns:xlink="http://www.w3.org/1999/xlink" width="20" height="20" viewBox="0 0 20 20">
	<defs>
		<clipPath id="clipPath5356244865">
			<path d="M0 0L20 0L20 20L0 20L0 0Z" fill-rule="nonzero" transform="matrix(1 0 0 1 0 0)"/>
		</clipPath>
	</defs>
	<g clip-path="url(#clipPath5356244865)">
		<defs>
			<clipPath id="clipPath9202762109">
				<path d="M0 0L20 0L20 20L0 20L0 0Z" fill-rule="nonzero" transform="matrix(1 0 0 1 -0 -0)"/>
			</clipPath>
		</defs>
		<g clip-path="url(#clipPath9202762109)">
			<path d="M8.75 10C11.5117 10 13.75 7.76172 13.75 5C13.75 2.23828 11.5117 0 8.75 0C5.98828 0 3.75 2.23828 3.75 5C3.75 7.76172 5.98828 10 8.75 10ZM12.25 11.25L11.5977 11.25C10.7305 11.6484 9.76562 11.875 8.75 11.875C7.73438 11.875 6.77344 11.6484 5.90234 11.25L5.25 11.25C2.35156 11.25 0 13.6016 0 16.5L0 18.125C0 19.1602 0.839844 20 1.875 20L15.625 20C16.6602 20 17.5 19.1602 17.5 18.125L17.5 16.5C17.5 13.6016 15.1484 11.25 12.25 11.25Z" fill-rule="nonzero" transform="matrix(1 0 0 1 1.25 0)" fill="rgb(75, 85, 99)"/>
		</g>
	</g>
</svg>
