<?xml version="1.0" encoding="utf-8" ?>
<svg xmlns="http://www.w3.org/2000/svg" xmlns:xlink="http://www.w3.org/1999/xlink" width="20" height="20" viewBox="0 0 20 20">
	<defs>
		<clipPath id="clipPath5476094850">
			<path d="M0 0L20 0L20 20L0 20L0 0Z" fill-rule="nonzero" transform="matrix(1 0 0 1 -0 -0)"/>
		</clipPath>
	</defs>
	<g clip-path="url(#clipPath5476094850)">
		<path d="M9.6875 0C4.33594 0 0 4.33594 0 9.6875C0 15.0391 4.33594 19.375 9.6875 19.375C15.0391 19.375 19.375 15.0391 19.375 9.6875C19.375 4.33594 15.0391 0 9.6875 0ZM9.6875 17.5C5.37109 17.5 1.875 14.0039 1.875 9.6875C1.875 5.37109 5.37109 1.875 9.6875 1.875C14.0039 1.875 17.5 5.37109 17.5 9.6875C17.5 14.0039 14.0039 17.5 9.6875 17.5ZM12.1016 13.4219L8.78516 11.0117C8.66406 10.9219 8.59375 10.7812 8.59375 10.6328L8.59375 4.21875C8.59375 3.96094 8.80469 3.75 9.0625 3.75L10.3125 3.75C10.5703 3.75 10.7812 3.96094 10.7812 4.21875L10.7812 9.75391L13.3906 11.6523C13.6016 11.8047 13.6445 12.0977 13.4922 12.3086L12.7578 13.3203C12.6055 13.5273 12.3125 13.5742 12.1016 13.4219Z" fill-rule="nonzero" transform="matrix(1 0 0 1 0.3125 0.3125)" fill="rgb(75, 85, 99)"/>
	</g>
</svg>
