<?xml version="1.0" encoding="utf-8" ?>
<svg xmlns="http://www.w3.org/2000/svg" xmlns:xlink="http://www.w3.org/1999/xlink" width="20" height="20" viewBox="0 0 20 20">
	<defs>
		<clipPath id="clipPath8537644143">
			<path d="M0 0L20 0L20 20L0 20L0 0Z" fill-rule="nonzero" transform="matrix(1 0 0 1 -0 -0)"/>
		</clipPath>
	</defs>
	<g clip-path="url(#clipPath8537644143)">
		<path d="M17.1637 14.152C16.409 13.341 14.9969 12.1211 14.9969 8.125C14.9969 5.08984 12.8688 2.66016 9.99925 2.06406L9.99925 1.25C9.99925 0.559766 9.43987 0 8.75003 0C8.06018 0 7.50081 0.559766 7.50081 1.25L7.50081 2.06406C4.63128 2.66016 2.50315 5.08984 2.50315 8.125C2.50315 12.1211 1.09104 13.341 0.336355 14.152C0.10198 14.4039 -0.00192612 14.7051 2.70076e-05 15C0.00432388 15.6406 0.507058 16.25 1.25393 16.25L16.2461 16.25C16.993 16.25 17.4961 15.6406 17.5 15C17.502 14.7051 17.3981 14.4035 17.1637 14.152ZM2.63792 14.375C3.46682 13.2824 4.37307 11.4715 4.37737 8.14766C4.37737 8.13984 4.37503 8.13281 4.37503 8.125C4.37503 5.70859 6.33362 3.75 8.75003 3.75C11.1664 3.75 13.125 5.70859 13.125 8.125C13.125 8.13281 13.1227 8.13984 13.1227 8.14766C13.127 11.4719 14.0332 13.2828 14.8621 14.375L2.63792 14.375ZM8.75003 20C10.1297 20 11.2489 18.8809 11.2489 17.5L6.2512 17.5C6.2512 18.8809 7.37034 20 8.75003 20Z" fill-rule="nonzero" transform="matrix(1 0 0 1 1.24997 0)" fill="rgb(75, 85, 99)"/>
	</g>
</svg>
