<?xml version="1.0" encoding="utf-8" ?>
<svg xmlns="http://www.w3.org/2000/svg" xmlns:xlink="http://www.w3.org/1999/xlink" width="36" height="36" viewBox="0 0 36 36">
	<defs>
		<clipPath id="clipPath8406319633">
			<path d="M0 0L20 0L20 20L0 20L0 0Z" fill-rule="nonzero" transform="matrix(1 0 0 1 8 8)"/>
		</clipPath>
	</defs>
	<g clip-path="url(#clipPath8406319633)">
		<defs>
			<clipPath id="clipPath8101337417">
				<path d="M0 0L20 0L20 20L0 20L0 0Z" fill-rule="nonzero" transform="matrix(1 0 0 1 8 8)"/>
			</clipPath>
		</defs>
		<g clip-path="url(#clipPath8101337417)">
			<path d="M19.7266 17.293L15.832 13.3984C15.6562 13.2227 15.418 13.125 15.168 13.125L14.5312 13.125C15.6094 11.7461 16.25 10.0117 16.25 8.125C16.25 3.63672 12.6133 0 8.125 0C3.63672 0 0 3.63672 0 8.125C0 12.6133 3.63672 16.25 8.125 16.25C10.0117 16.25 11.7461 15.6094 13.125 14.5312L13.125 15.168C13.125 15.418 13.2227 15.6562 13.3984 15.832L17.293 19.7266C17.6602 20.0938 18.2539 20.0938 18.6172 19.7266L19.7227 18.6211C20.0898 18.2539 20.0898 17.6602 19.7266 17.293ZM8.125 13.125C5.36328 13.125 3.125 10.8906 3.125 8.125C3.125 5.36328 5.35938 3.125 8.125 3.125C10.8867 3.125 13.125 5.35938 13.125 8.125C13.125 10.8867 10.8906 13.125 8.125 13.125Z" fill-rule="nonzero" transform="matrix(1 0 0 1 8 8)" fill="rgb(75, 85, 99)"/>
		</g>
	</g>
</svg>
